<?xml version="1.0" encoding="UTF-8" standalone="no" ?>
<!DOCTYPE svg PUBLIC "-//W3C//DTD SVG 1.1//EN" "http://www.w3.org/Graphics/SVG/1.1/DTD/svg11.dtd">
<svg xmlns="http://www.w3.org/2000/svg" xmlns:xlink="http://www.w3.org/1999/xlink" version="1.1" width="500" height="500" viewBox="0 0 500 500" xml:space="preserve">
<desc>Created with Fabric.js 4.6.0</desc>
<defs>
</defs>
<g transform="matrix(0.79 0 0 0.79 250 250)" id="TV0CMUjSizqrCvtx29jyI"  >
<path style="stroke: rgb(138,190,83); stroke-width: 8; stroke-dasharray: none; stroke-linecap: butt; stroke-dashoffset: 0; stroke-linejoin: miter; stroke-miterlimit: 4; fill: none; fill-rule: nonzero; opacity: 1;" vector-effect="non-scaling-stroke"  transform=" translate(0, 0)" d="M 0 -209.59303 C 115.69535 -209.59303 209.59303 -115.69535 209.59303 0 C 209.59303 115.69535 115.69535 209.59303 0 209.59303 C -115.69535 209.59303 -209.59303 115.69535 -209.59303 0 C -209.59303 -115.69535 -115.69535 -209.59303 0 -209.59303 z" stroke-linecap="round" />
</g>
<g transform="matrix(3.82 0 0 3.82 250 258)" id="gYP2ArOCgrXRCNuuHqcep"  >
<path style="stroke: rgb(138,190,83); stroke-width: 4; stroke-dasharray: none; stroke-linecap: butt; stroke-dashoffset: 0; stroke-linejoin: miter; stroke-miterlimit: 4; fill: none; fill-rule: nonzero; opacity: 1;" vector-effect="non-scaling-stroke"  transform=" translate(0, 0)" d="M -26.20545 -26.20545 L 26.20545 -26.20545 L 26.20545 26.20545 L -26.20545 26.20545 z" stroke-linecap="round" />
</g>
<g transform="matrix(5.87 0 0 -0.1 250 143.11)" id="ccWbxcbqNc1bZjyZaK287"  >
<path style="stroke: rgb(220,223,238); stroke-width: 0; stroke-dasharray: none; stroke-linecap: butt; stroke-dashoffset: 0; stroke-linejoin: miter; stroke-miterlimit: 4; fill: rgb(138,190,83); fill-rule: nonzero; opacity: 1;" vector-effect="non-scaling-stroke"  transform=" translate(0, 0)" d="M -15.33019 -15.33019 L 15.33019 -15.33019 L 15.33019 15.33019 L -15.33019 15.33019 z" stroke-linecap="round" />
</g>
<g transform="matrix(5.22 0 0 -0.1 250 127.38)" id="o3as0HbJ014uobiiJYkas"  >
<path style="stroke: rgb(220,223,238); stroke-width: 0; stroke-dasharray: none; stroke-linecap: butt; stroke-dashoffset: 0; stroke-linejoin: miter; stroke-miterlimit: 4; fill: rgb(138,190,83); fill-rule: nonzero; opacity: 1;" vector-effect="non-scaling-stroke"  transform=" translate(0, 0)" d="M -15.33019 -15.33019 L 15.33019 -15.33019 L 15.33019 15.33019 L -15.33019 15.33019 z" stroke-linecap="round" />
</g>
</svg>